<?xml version="1.0" standalone="no"?>
<!DOCTYPE svg PUBLIC "-//W3C//DTD SVG 20010904//EN"
 "http://www.w3.org/TR/2001/REC-SVG-20010904/DTD/svg10.dtd">
<svg version="1.0" xmlns="http://www.w3.org/2000/svg"
 width="512.000000pt" height="512.000000pt" viewBox="0 0 512.000000 512.000000"
 preserveAspectRatio="xMidYMid meet">
<metadata>
Created by potrace 1.16, written by Peter Selinger 2001-2019
</metadata>
<g transform="translate(0.000000,512.000000) scale(0.100000,-0.100000)"
fill="#000000" stroke="none">
<path d="M1855 4014 c-457 -64 -876 -269 -1204 -588 -353 -345 -566 -767 -636
-1261 -19 -132 -19 -440 0 -575 18 -126 44 -183 104 -225 39 -28 50 -30 126
-30 77 0 87 2 127 30 90 64 106 131 79 335 -28 214 4 507 79 726 45 131 150
336 227 443 492 687 1402 914 2151 537 281 -142 524 -363 689 -629 150 -244
237 -523 250 -807 l5 -125 -243 241 c-134 133 -260 250 -279 260 -23 12 -57
18 -100 19 -122 0 -210 -79 -218 -196 -9 -117 -17 -106 472 -596 334 -335 452
-447 486 -462 54 -25 136 -27 188 -6 50 21 914 883 942 941 25 51 27 151 4
197 -49 96 -157 145 -262 117 -42 -12 -72 -38 -293 -258 l-247 -244 -6 88
c-30 454 -140 799 -360 1129 -329 492 -830 818 -1426 926 -156 28 -496 35
-655 13z"/>
</g>
</svg>
