<?xml version="1.0" standalone="no"?>
<!DOCTYPE svg PUBLIC "-//W3C//DTD SVG 20010904//EN"
 "http://www.w3.org/TR/2001/REC-SVG-20010904/DTD/svg10.dtd">
<svg version="1.0" xmlns="http://www.w3.org/2000/svg"
 width="512.000000pt" height="512.000000pt" viewBox="0 0 512.000000 512.000000"
 preserveAspectRatio="xMidYMid meet">
<metadata>
Created by potrace 1.16, written by Peter Selinger 2001-2019
</metadata>
<g transform="translate(0.000000,512.000000) scale(0.100000,-0.100000)"
fill="#000000" stroke="none">
<path d="M3495 5006 c-251 -48 -466 -224 -560 -458 l-27 -68 -1377 0 -1378 0
-44 -23 c-68 -36 -103 -93 -107 -176 -6 -103 34 -171 123 -212 38 -18 103 -19
1413 -19 1298 0 1373 -1 1378 -17 25 -76 101 -207 155 -266 150 -166 332 -247
555 -247 136 0 213 18 330 76 172 84 303 229 369 407 l18 47 306 0 c275 0 310
2 346 19 89 41 129 109 123 212 -4 83 -39 140 -107 176 -43 23 -49 23 -355 23
l-311 0 -28 69 c-88 219 -276 384 -506 446 -81 22 -232 27 -316 11z m242 -448
c166 -62 250 -265 174 -421 -73 -151 -259 -223 -406 -158 -185 82 -246 303
-129 472 77 112 229 157 361 107z"/>
<path d="M1338 3295 c-234 -47 -458 -240 -542 -467 l-18 -48 -289 0 c-176 0
-307 -4 -333 -11 -93 -23 -156 -107 -156 -209 0 -102 63 -186 156 -209 26 -7
157 -11 333 -11 l289 0 18 -47 c85 -232 309 -422 550 -468 274 -53 548 46 726
261 41 50 112 177 132 237 5 16 79 17 1361 17 944 0 1369 3 1399 11 93 23 156
107 156 209 0 102 -63 186 -156 209 -30 8 -455 11 -1399 11 -1282 0 -1356 1
-1361 18 -4 9 -24 53 -45 97 -72 149 -189 265 -344 340 -146 71 -314 92 -477
60z m277 -449 c100 -46 154 -112 181 -218 37 -143 -38 -289 -183 -355 -46 -21
-66 -25 -131 -21 -94 4 -154 32 -216 98 -154 165 -89 421 129 507 54 21 164
16 220 -11z"/>
<path d="M3440 1581 c-212 -59 -383 -198 -474 -386 -24 -49 -46 -98 -50 -107
-5 -17 -80 -18 -1378 -18 -1310 0 -1375 -1 -1413 -19 -89 -41 -129 -109 -123
-212 4 -83 39 -140 107 -176 l44 -23 1378 0 1377 0 27 -68 c155 -388 609 -575
987 -408 180 80 322 225 395 407 l28 69 311 0 c306 0 312 0 355 23 68 36 103
93 107 176 6 103 -34 171 -123 212 -36 17 -71 19 -346 19 l-306 0 -18 48 c-66
177 -197 322 -369 406 -50 25 -120 52 -156 61 -91 21 -277 19 -360 -4z m317
-446 c198 -90 244 -346 89 -501 -198 -197 -532 -58 -530 221 2 229 232 375
441 280z"/>
</g>
</svg>
