<?xml version="1.0" standalone="no"?>
<!DOCTYPE svg PUBLIC "-//W3C//DTD SVG 20010904//EN"
 "http://www.w3.org/TR/2001/REC-SVG-20010904/DTD/svg10.dtd">
<svg version="1.0" xmlns="http://www.w3.org/2000/svg"
 width="512.000000pt" height="512.000000pt" viewBox="0 0 512.000000 512.000000"
 preserveAspectRatio="xMidYMid meet">
<metadata>
Created by potrace 1.16, written by Peter Selinger 2001-2019
</metadata>
<g transform="translate(0.000000,512.000000) scale(0.100000,-0.100000)"
fill="#000000" stroke="none">
<path d="M2770 4023 c-88 -8 -294 -48 -387 -74 -487 -137 -917 -450 -1198
-874 -223 -336 -331 -673 -361 -1129 l-6 -88 -247 244 c-221 220 -251 246
-293 258 -105 28 -213 -21 -262 -117 -23 -46 -21 -146 4 -197 28 -58 892 -920
942 -941 52 -21 134 -19 188 6 34 15 152 127 486 462 489 490 481 479 472 596
-5 75 -39 129 -105 168 -40 23 -59 28 -113 28 -43 -1 -77 -7 -100 -19 -19 -10
-145 -127 -279 -260 l-243 -241 5 125 c32 737 559 1381 1282 1564 199 50 406
66 590 46 589 -66 1091 -413 1350 -935 35 -71 78 -170 95 -219 75 -219 107
-512 79 -726 -27 -204 -11 -271 79 -335 40 -28 50 -30 127 -30 76 0 87 2 126
30 60 42 86 99 104 225 19 139 19 437 0 578 -52 370 -194 716 -418 1016 -76
100 -257 288 -357 369 -309 249 -687 411 -1083 462 -106 13 -376 18 -477 8z"/>
</g>
</svg>
